<?xml version="1.0" encoding="UTF-8"?>
<svg xmlns="http://www.w3.org/2000/svg" viewBox="0 0 1440 860" width="1440" height="860">
  <defs>
    <style>
      @import url('https://fonts.googleapis.com/css2?family=Outfit:wght@300;400;600;700&amp;family=Fira+Code:wght@400;500&amp;display=swap');
      text { font-family: 'Outfit', 'Segoe UI', system-ui, sans-serif; }
      .mono { font-family: 'Fira Code', 'Cascadia Code', 'Consolas', monospace; }
    </style>

    <linearGradient id="bgGrad" x1="0" y1="0" x2="0.4" y2="1">
      <stop offset="0%" stop-color="#060a12"/>
      <stop offset="100%" stop-color="#0a0e1a"/>
    </linearGradient>

    <pattern id="dotGrid" x="0" y="0" width="36" height="36" patternUnits="userSpaceOnUse">
      <circle cx="0" cy="0" r="0.7" fill="rgba(120,150,255,0.10)"/>
      <circle cx="36" cy="0" r="0.7" fill="rgba(120,150,255,0.10)"/>
      <circle cx="0" cy="36" r="0.7" fill="rgba(120,150,255,0.10)"/>
      <circle cx="36" cy="36" r="0.7" fill="rgba(120,150,255,0.10)"/>
    </pattern>

    <filter id="softGlow" x="-30%" y="-30%" width="160%" height="160%">
      <feGaussianBlur stdDeviation="6" result="blur"/>
      <feComposite in="SourceGraphic" in2="blur" operator="over"/>
    </filter>

    <!-- Arrow markers -->
    <marker id="arrowBlue" markerWidth="9" markerHeight="9" refX="7" refY="3.5" orient="auto">
      <path d="M0,0.5 L0,6.5 L8,3.5 z" fill="rgba(59,130,246,0.8)"/>
    </marker>
    <marker id="arrowPurple" markerWidth="9" markerHeight="9" refX="7" refY="3.5" orient="auto">
      <path d="M0,0.5 L0,6.5 L8,3.5 z" fill="rgba(139,92,246,0.8)"/>
    </marker>
    <marker id="arrowTeal" markerWidth="9" markerHeight="9" refX="7" refY="3.5" orient="auto">
      <path d="M0,0.5 L0,6.5 L8,3.5 z" fill="rgba(20,184,166,0.8)"/>
    </marker>
    <marker id="arrowAmber" markerWidth="9" markerHeight="9" refX="7" refY="3.5" orient="auto">
      <path d="M0,0.5 L0,6.5 L8,3.5 z" fill="rgba(217,119,6,0.8)"/>
    </marker>
    <marker id="arrowMini" markerWidth="7" markerHeight="7" refX="5" refY="3" orient="auto">
      <path d="M0,0.5 L0,5.5 L6,3 z" fill="rgba(71,85,105,0.9)"/>
    </marker>
  </defs>

  <!-- ═══ BACKGROUND ═══ -->
  <rect width="1440" height="860" fill="url(#bgGrad)"/>
  <rect width="1440" height="860" fill="url(#dotGrid)"/>

  <!-- Corner accent marks -->
  <polyline points="20,60 20,20 60,20" fill="none" stroke="#2563eb" stroke-width="2" opacity="0.55"/>
  <polyline points="1380,840 1420,840 1420,800" fill="none" stroke="#0d9488" stroke-width="2" opacity="0.55"/>

  <!-- ═══ HEADER ═══ -->
  <text x="720" y="34" text-anchor="middle" font-size="22" font-weight="700" fill="#f1f5f9" letter-spacing="10">DATANEXUS</text>
  <text x="720" y="54" text-anchor="middle" font-size="10.5" font-weight="300" fill="#475569" letter-spacing="3.5">AUTOMATED DATA QUALITY &amp; OBSERVABILITY FRAMEWORK</text>
  <!-- Accent underline -->
  <rect x="560" y="61" width="320" height="1.5" rx="1" fill="url(#titleLine)" opacity="0.5"/>
  <line x1="560" y1="62" x2="680" y2="62" stroke="#2563eb" stroke-width="1.5" opacity="0.6"/>
  <line x1="680" y1="62" x2="760" y2="62" stroke="#7c3aed" stroke-width="1.5" opacity="0.6"/>
  <line x1="760" y1="62" x2="840" y2="62" stroke="#0d9488" stroke-width="1.5" opacity="0.6"/>
  <line x1="840" y1="62" x2="880" y2="62" stroke="#b45309" stroke-width="1.5" opacity="0.6"/>
  <text x="720" y="76" text-anchor="middle" font-size="9" fill="#1e293b" letter-spacing="2.5">SYSTEM ARCHITECTURE  ·  v1.0  ·  DEPI GRADUATION PROJECT</text>
  <line x1="30" y1="84" x2="1410" y2="84" stroke="#1e293b" stroke-width="1"/>


  <!-- ══════════════════════════════════════════════ -->
  <!--  LAYER 1 — USER INTERACTION                   -->
  <!-- ══════════════════════════════════════════════ -->
  <rect x="22" y="93" width="1396" height="148" rx="8"
        fill="rgba(30,58,138,0.10)" stroke="#1e3a8a" stroke-width="1.2"/>
  <rect x="22" y="93" width="4" height="148" rx="2" fill="#3b82f6"/>

  <text x="46" y="113" font-size="9.5" font-weight="700" fill="#3b82f6" letter-spacing="2.5">LAYER 1</text>
  <text x="108" y="113" font-size="9.5" font-weight="400" fill="#334155" letter-spacing="2">— USER INTERACTION</text>

  <!-- Tag badge -->
  <rect x="1300" y="100" width="110" height="18" rx="3" fill="rgba(37,99,235,0.15)" stroke="#1d4ed8" stroke-width="0.8"/>
  <text x="1355" y="113" text-anchor="middle" font-size="8.5" fill="#60a5fa" class="mono">Port :8501 / :5000</text>

  <!-- ── Streamlit Box ── -->
  <rect x="56" y="122" width="396" height="106" rx="7"
        fill="rgba(7,15,35,0.75)" stroke="#1d4ed8" stroke-width="1.5"/>
  <rect x="56" y="122" width="396" height="3.5" rx="1.5" fill="#3b82f6" opacity="0.85"/>
  <!-- browser icon -->
  <rect x="76" y="138" width="30" height="22" rx="3.5" fill="none" stroke="#3b82f6" stroke-width="1.3" opacity="0.85"/>
  <rect x="76" y="138" width="30" height="7" rx="3.5" fill="rgba(37,99,235,0.4)"/>
  <circle cx="81.5" cy="141.5" r="1.4" fill="#ef4444" opacity="0.8"/>
  <circle cx="86.5" cy="141.5" r="1.4" fill="#f59e0b" opacity="0.8"/>
  <circle cx="91.5" cy="141.5" r="1.4" fill="#22c55e" opacity="0.8"/>
  <text x="116" y="151" font-size="12.5" font-weight="600" fill="#e2e8f0">Web Dashboard</text>
  <text x="116" y="165" font-size="9" fill="#60a5fa" class="mono">Streamlit · Port 8501</text>
  <line x1="76" y1="172" x2="432" y2="172" stroke="#1e293b" stroke-width="0.8"/>
  <text x="76" y="184" font-size="9" fill="#475569">→  Quality score reports &amp; trend charts</text>
  <text x="76" y="197" font-size="9" fill="#475569">→  Validation config UI (no code needed)</text>
  <text x="76" y="210" font-size="9" fill="#475569">→  Real-time pipeline monitoring dashboard</text>
  <rect x="378" y="207" width="66" height="13" rx="2.5" fill="rgba(2,132,199,0.10)" stroke="#0369a1" stroke-width="0.7"/>
  <text x="411" y="217" text-anchor="middle" font-size="7" fill="#38bdf8" letter-spacing="1">DOCKER</text>

  <!-- ── CLI Box ── -->
  <rect x="522" y="122" width="396" height="106" rx="7"
        fill="rgba(7,15,35,0.75)" stroke="#1d4ed8" stroke-width="1.5"/>
  <rect x="522" y="122" width="396" height="3.5" rx="1.5" fill="#3b82f6" opacity="0.85"/>
  <!-- terminal icon -->
  <rect x="542" y="138" width="30" height="22" rx="3.5" fill="none" stroke="#3b82f6" stroke-width="1.3" opacity="0.85"/>
  <text x="546" y="154" font-size="11" fill="#3b82f6" class="mono">&gt;_</text>
  <text x="582" y="151" font-size="12.5" font-weight="600" fill="#e2e8f0">CLI Tool</text>
  <text x="582" y="165" font-size="9" fill="#60a5fa" class="mono">Python / Click · Terminal</text>
  <line x1="542" y1="172" x2="898" y2="172" stroke="#1e293b" stroke-width="0.8"/>
  <text x="542" y="184" font-size="9" fill="#475569">→  Run validations &amp; view results inline</text>
  <text x="542" y="197" font-size="9" fill="#475569">→  Generate YAML config templates</text>
  <text x="542" y="210" font-size="9" fill="#475569">→  Local dev &amp; manual pipeline triggers</text>

  <!-- ── Flask REST API Box ── -->
  <rect x="988" y="122" width="430" height="106" rx="7"
        fill="rgba(7,15,35,0.75)" stroke="#1d4ed8" stroke-width="1.5"/>
  <rect x="988" y="122" width="430" height="3.5" rx="1.5" fill="#3b82f6" opacity="0.85"/>
  <!-- API icon -->
  <rect x="1008" y="138" width="30" height="22" rx="3.5" fill="none" stroke="#3b82f6" stroke-width="1.3" opacity="0.85"/>
  <text x="1010" y="154" font-size="9" fill="#3b82f6" class="mono">&#123;&#125;</text>
  <text x="1048" y="151" font-size="12.5" font-weight="600" fill="#e2e8f0">REST API</text>
  <text x="1048" y="165" font-size="9" fill="#60a5fa" class="mono">Flask · Port 5000</text>
  <line x1="1008" y1="172" x2="1398" y2="172" stroke="#1e293b" stroke-width="0.8"/>
  <text x="1008" y="184" font-size="9" fill="#475569">→  POST /api/validations/:id/run</text>
  <text x="1008" y="197" font-size="9" fill="#475569">→  GET  /api/runs/:id/results</text>
  <text x="1008" y="210" font-size="9" fill="#475569">→  Webhooks · CI/CD integration</text>
  <rect x="1342" y="207" width="66" height="13" rx="2.5" fill="rgba(2,132,199,0.10)" stroke="#0369a1" stroke-width="0.7"/>
  <text x="1375" y="217" text-anchor="middle" font-size="7" fill="#38bdf8" letter-spacing="1">DOCKER</text>


  <!-- ══ ARROWS: L1 → L2 ══ -->
  <line x1="254" y1="228" x2="254" y2="268" stroke="rgba(59,130,246,0.55)" stroke-width="1.8" stroke-dasharray="none" marker-end="url(#arrowBlue)"/>
  <line x1="720" y1="228" x2="720" y2="268" stroke="rgba(59,130,246,0.55)" stroke-width="1.8" marker-end="url(#arrowBlue)"/>
  <line x1="1200" y1="228" x2="1200" y2="268" stroke="rgba(59,130,246,0.55)" stroke-width="1.8" marker-end="url(#arrowBlue)"/>

  <!-- Small labels on arrows -->
  <text x="268" y="252" font-size="8" fill="#1d4ed8" class="mono">HTTP</text>
  <text x="734" y="252" font-size="8" fill="#1d4ed8" class="mono">CLI</text>
  <text x="1214" y="252" font-size="8" fill="#1d4ed8" class="mono">REST</text>


  <!-- ══════════════════════════════════════════════ -->
  <!--  LAYER 2 — ORCHESTRATION                      -->
  <!-- ══════════════════════════════════════════════ -->
  <rect x="22" y="267" width="1396" height="138" rx="8"
        fill="rgba(91,33,182,0.09)" stroke="#4c1d95" stroke-width="1.2"/>
  <rect x="22" y="267" width="4" height="138" rx="2" fill="#7c3aed"/>
  <text x="46" y="287" font-size="9.5" font-weight="700" fill="#7c3aed" letter-spacing="2.5">LAYER 2</text>
  <text x="108" y="287" font-size="9.5" font-weight="400" fill="#334155" letter-spacing="2">— ORCHESTRATION</text>

  <rect x="1300" y="273" width="110" height="18" rx="3" fill="rgba(109,40,217,0.15)" stroke="#6d28d9" stroke-width="0.8"/>
  <text x="1355" y="286" text-anchor="middle" font-size="8.5" fill="#a78bfa" class="mono">Scheduler / DAG</text>

  <!-- Airflow main box -->
  <rect x="56" y="295" width="1326" height="97" rx="7"
        fill="rgba(10,6,28,0.80)" stroke="#6d28d9" stroke-width="1.5"/>
  <rect x="56" y="295" width="1326" height="3.5" rx="1.5" fill="#7c3aed" opacity="0.85"/>

  <text x="76" y="314" font-size="12" font-weight="600" fill="#ddd6fe">Apache Airflow</text>
  <text x="76" y="328" font-size="8.5" fill="#7c3aed" class="mono">datanexus_validation_dag.py</text>

  <!-- ── DATA SOURCES input section ── -->
  <line x1="68" y1="335" x2="212" y2="335" stroke="#3b0764" stroke-width="0.7" opacity="0.75"/>
  <text x="140" y="345" text-anchor="middle" font-size="7.5" font-weight="700" fill="#6d28d9" letter-spacing="1.5">DATA SOURCES</text>
  <!-- Source type pills -->
  <rect x="68" y="350" width="42" height="14" rx="3" fill="rgba(15,23,42,0.85)" stroke="#334155" stroke-width="0.8"/>
  <text x="89" y="360.5" text-anchor="middle" font-size="7.5" fill="#94a3b8" class="mono">CSV</text>
  <rect x="116" y="350" width="42" height="14" rx="3" fill="rgba(15,23,42,0.85)" stroke="#334155" stroke-width="0.8"/>
  <text x="137" y="360.5" text-anchor="middle" font-size="7.5" fill="#94a3b8" class="mono">DB</text>
  <rect x="164" y="350" width="42" height="14" rx="3" fill="rgba(15,23,42,0.85)" stroke="#334155" stroke-width="0.8"/>
  <text x="185" y="360.5" text-anchor="middle" font-size="7.5" fill="#94a3b8" class="mono">API</text>
  <!-- Source subtitles -->
  <text x="89" y="375" text-anchor="middle" font-size="6.5" fill="#475569">Flat files</text>
  <text x="137" y="375" text-anchor="middle" font-size="6.5" fill="#475569">Tables</text>
  <text x="185" y="375" text-anchor="middle" font-size="6.5" fill="#475569">JSON</text>
  <!-- Dashed arrow: data sources → profile_data pill -->
  <line x1="207" y1="357" x2="220" y2="342" stroke="rgba(109,40,217,0.6)" stroke-width="1.2" stroke-dasharray="3,2" marker-end="url(#arrowPurple)"/>

  <!-- DAG Step Pills inside Airflow -->
  <!-- Pill 1 -->
  <rect x="220" y="304" width="220" height="74" rx="6"
        fill="rgba(91,33,182,0.18)" stroke="#5b21b6" stroke-width="1"/>
  <text x="330" y="323" text-anchor="middle" font-size="9.5" font-weight="700" fill="#c4b5fd">① profile_data</text>
  <line x1="225" y1="328" x2="434" y2="328" stroke="#3b0764" stroke-width="0.8"/>
  <text x="330" y="342" text-anchor="middle" font-size="8.5" fill="#64748b" class="mono">DataProfiler.run()</text>
  <text x="330" y="357" text-anchor="middle" font-size="8" fill="#475569">Stats · Nulls · Patterns</text>
  <text x="330" y="370" text-anchor="middle" font-size="8" fill="#475569">Runs every 6 hours</text>

  <line x1="440" y1="341" x2="476" y2="341" stroke="#4c1d95" stroke-width="1.2" marker-end="url(#arrowMini)"/>

  <!-- Pill 2 -->
  <rect x="476" y="304" width="220" height="74" rx="6"
        fill="rgba(91,33,182,0.18)" stroke="#5b21b6" stroke-width="1"/>
  <text x="586" y="323" text-anchor="middle" font-size="9.5" font-weight="700" fill="#c4b5fd">② run_validations</text>
  <line x1="481" y1="328" x2="690" y2="328" stroke="#3b0764" stroke-width="0.8"/>
  <text x="586" y="342" text-anchor="middle" font-size="8.5" fill="#64748b" class="mono">Validator.execute()</text>
  <text x="586" y="357" text-anchor="middle" font-size="8" fill="#475569">Apply YAML rules</text>
  <text x="586" y="370" text-anchor="middle" font-size="8" fill="#475569">Score calculation</text>

  <line x1="696" y1="341" x2="732" y2="341" stroke="#4c1d95" stroke-width="1.2" marker-end="url(#arrowMini)"/>

  <!-- Pill 3 -->
  <rect x="732" y="304" width="220" height="74" rx="6"
        fill="rgba(91,33,182,0.18)" stroke="#5b21b6" stroke-width="1"/>
  <text x="842" y="323" text-anchor="middle" font-size="9.5" font-weight="700" fill="#c4b5fd">③ send_alerts</text>
  <line x1="737" y1="328" x2="946" y2="328" stroke="#3b0764" stroke-width="0.8"/>
  <text x="842" y="342" text-anchor="middle" font-size="8.5" fill="#64748b" class="mono">AlertManager.notify()</text>
  <text x="842" y="357" text-anchor="middle" font-size="8" fill="#475569">Threshold violations</text>
  <text x="842" y="370" text-anchor="middle" font-size="8" fill="#475569">Email / Slack dispatch</text>

  <line x1="952" y1="341" x2="988" y2="341" stroke="#4c1d95" stroke-width="1.2" marker-end="url(#arrowMini)"/>

  <!-- Pill 4 -->
  <rect x="988" y="304" width="220" height="74" rx="6"
        fill="rgba(91,33,182,0.18)" stroke="#5b21b6" stroke-width="1"/>
  <text x="1098" y="323" text-anchor="middle" font-size="9.5" font-weight="700" fill="#c4b5fd">④ persist_results</text>
  <line x1="993" y1="328" x2="1202" y2="328" stroke="#3b0764" stroke-width="0.8"/>
  <text x="1098" y="342" text-anchor="middle" font-size="8.5" fill="#64748b" class="mono">DB.write(run_results)</text>
  <text x="1098" y="357" text-anchor="middle" font-size="8" fill="#475569">Store to PostgreSQL</text>
  <text x="1098" y="370" text-anchor="middle" font-size="8" fill="#475569">History &amp; audit trail</text>

  <!-- CI/CD badge -->
  <rect x="1222" y="306" width="148" height="72" rx="6"
        fill="rgba(30,20,60,0.5)" stroke="#4c1d95" stroke-width="1" stroke-dasharray="5,3"/>
  <text x="1296" y="322" text-anchor="middle" font-size="8.5" font-weight="600" fill="#6d28d9">CI/CD TRIGGER</text>
  <line x1="1227" y1="326" x2="1364" y2="326" stroke="#2d1060" stroke-width="0.8"/>
  <text x="1296" y="340" text-anchor="middle" font-size="8" fill="#475569" class="mono">GitHub Actions</text>
  <text x="1296" y="354" text-anchor="middle" font-size="8" fill="#475569">On PR · On push</text>
  <text x="1296" y="367" text-anchor="middle" font-size="8" fill="#475569">pytest · quality gate</text>


  <!-- ══ ARROWS: L2 → L3 ══ -->
  <line x1="280" y1="392" x2="210" y2="437" stroke="rgba(13,148,136,0.6)" stroke-width="1.8" marker-end="url(#arrowTeal)"/>
  <line x1="560" y1="392" x2="570" y2="437" stroke="rgba(13,148,136,0.6)" stroke-width="1.8" marker-end="url(#arrowTeal)"/>
  <line x1="840" y1="392" x2="918" y2="437" stroke="rgba(13,148,136,0.6)" stroke-width="1.8" marker-end="url(#arrowTeal)"/>
  <line x1="1098" y1="392" x2="1276" y2="437" stroke="rgba(13,148,136,0.6)" stroke-width="1.8" marker-end="url(#arrowTeal)"/>


  <!-- ══════════════════════════════════════════════ -->
  <!--  LAYER 3 — CORE ENGINE                        -->
  <!-- ══════════════════════════════════════════════ -->
  <rect x="22" y="432" width="1396" height="180" rx="8"
        fill="rgba(13,148,136,0.08)" stroke="#134e4a" stroke-width="1.2"/>
  <rect x="22" y="432" width="4" height="180" rx="2" fill="#0d9488"/>
  <text x="46" y="452" font-size="9.5" font-weight="700" fill="#0d9488" letter-spacing="2.5">LAYER 3</text>
  <text x="108" y="452" font-size="9.5" font-weight="400" fill="#334155" letter-spacing="2">— CORE ENGINE</text>

  <rect x="1300" y="438" width="110" height="18" rx="3" fill="rgba(13,148,136,0.15)" stroke="#0d9488" stroke-width="0.8"/>
  <text x="1355" y="451" text-anchor="middle" font-size="8.5" fill="#2dd4bf" class="mono">Business Logic</text>

  <!-- ── Data Profiler ── x=56, w=318 -->
  <rect x="56" y="460" width="318" height="138" rx="7"
        fill="rgba(4,16,14,0.82)" stroke="#0d9488" stroke-width="1.5"/>
  <rect x="56" y="460" width="318" height="3.5" rx="1.5" fill="#0d9488" opacity="0.85"/>
  <!-- bar chart icon -->
  <rect x="76" y="477" width="5" height="15" rx="1" fill="#0d9488" opacity="0.7"/>
  <rect x="83" y="470" width="5" height="22" rx="1" fill="#0d9488" opacity="0.7"/>
  <rect x="90" y="474" width="5" height="18" rx="1" fill="#0d9488" opacity="0.7"/>
  <text x="106" y="481" font-size="12" font-weight="600" fill="#e2e8f0">Data Profiler</text>
  <text x="106" y="495" font-size="8.5" fill="#2dd4bf" class="mono">profiler.py</text>
  <line x1="76" y1="501" x2="364" y2="501" stroke="#0f2f2c" stroke-width="0.8"/>
  <text x="76" y="514" font-size="8.5" fill="#475569">→  Column type detection</text>
  <text x="76" y="527" font-size="8.5" fill="#475569">→  Null % / unique count stats</text>
  <text x="76" y="540" font-size="8.5" fill="#475569">→  Min / max / mean / median</text>
  <text x="76" y="553" font-size="8.5" fill="#475569">→  Distribution profiling</text>
  <text x="76" y="566" font-size="8.5" fill="#475569">→  Outlier identification</text>
  <text x="76" y="579" font-size="8.5" fill="#475569">→  Pattern recognition (email…)</text>
  <text x="76" y="592" font-size="8.5" fill="#475569">→  Schema inference &amp; drift</text>

  <!-- ── Validation Engine ── x=430, w=318 -->
  <rect x="430" y="460" width="318" height="138" rx="7"
        fill="rgba(4,16,14,0.82)" stroke="#0d9488" stroke-width="1.5"/>
  <rect x="430" y="460" width="318" height="3.5" rx="1.5" fill="#0d9488" opacity="0.85"/>
  <!-- shield/check icon -->
  <path d="M450,490 L450,477 Q457,475 464,477 L464,490 Q464,498 457,501 Q450,498 450,490 Z"
        fill="none" stroke="#0d9488" stroke-width="1.3" opacity="0.8"/>
  <path d="M452.5,484 L455.5,488 L461.5,480" fill="none" stroke="#0d9488" stroke-width="1.5"/>
  <text x="476" y="481" font-size="12" font-weight="600" fill="#e2e8f0">Validation Engine</text>
  <text x="476" y="495" font-size="8.5" fill="#2dd4bf" class="mono">validator.py</text>
  <line x1="450" y1="501" x2="738" y2="501" stroke="#0f2f2c" stroke-width="0.8"/>
  <text x="450" y="514" font-size="8.5" fill="#475569">→  Not-null / not-empty checks</text>
  <text x="450" y="527" font-size="8.5" fill="#475569">→  Regex pattern validation</text>
  <text x="450" y="540" font-size="8.5" fill="#475569">→  Range &amp; threshold rules</text>
  <text x="450" y="553" font-size="8.5" fill="#475569">→  Uniqueness constraints</text>
  <text x="450" y="566" font-size="8.5" fill="#475569">→  Schema conformance</text>
  <text x="450" y="579" font-size="8.5" fill="#475569">→  YAML config-driven rules</text>
  <text x="450" y="592" font-size="8.5" fill="#475569">→  Quality score calculation</text>

  <!-- ── Alert Manager ── x=804, w=318 -->
  <rect x="804" y="460" width="318" height="138" rx="7"
        fill="rgba(4,16,14,0.82)" stroke="#0d9488" stroke-width="1.5"/>
  <rect x="804" y="460" width="318" height="3.5" rx="1.5" fill="#0d9488" opacity="0.85"/>
  <!-- bell icon -->
  <path d="M828,492 Q824,483 824,479 Q824,472 831,470 Q838,472 838,479 Q838,483 834,492 Z"
        fill="none" stroke="#0d9488" stroke-width="1.3" opacity="0.8"/>
  <line x1="828" y1="492" x2="834" y2="492" stroke="#0d9488" stroke-width="1.3" opacity="0.8"/>
  <circle cx="831" cy="494.5" r="1.5" fill="#0d9488" opacity="0.6"/>
  <text x="850" y="481" font-size="12" font-weight="600" fill="#e2e8f0">Alert Manager</text>
  <text x="850" y="495" font-size="8.5" fill="#2dd4bf" class="mono">alerts.py</text>
  <line x1="824" y1="501" x2="1112" y2="501" stroke="#0f2f2c" stroke-width="0.8"/>
  <text x="824" y="514" font-size="8.5" fill="#475569">→  Severity level evaluation</text>
  <text x="824" y="527" font-size="8.5" fill="#475569">→  Email notifications (SMTP)</text>
  <text x="824" y="540" font-size="8.5" fill="#475569">→  Slack webhook dispatch</text>
  <text x="824" y="553" font-size="8.5" fill="#475569">→  Alert deduplication logic</text>
  <text x="824" y="566" font-size="8.5" fill="#475569">→  Cooldown period tracking</text>
  <text x="824" y="579" font-size="8.5" fill="#475569">→  Acknowledge &amp; resolve flow</text>
  <text x="824" y="592" font-size="8.5" fill="#475569">→  Alert history logging</text>

  <!-- ── GE Integration ── x=1178, w=240 -->
  <rect x="1178" y="460" width="240" height="138" rx="7"
        fill="rgba(4,16,14,0.82)" stroke="#0d9488" stroke-width="1.5"/>
  <rect x="1178" y="460" width="240" height="3.5" rx="1.5" fill="#0d9488" opacity="0.85"/>
  <!-- puzzle/adapter icon (two overlapping rects) -->
  <rect x="1198" y="472" width="14" height="14" rx="2" fill="none" stroke="#0d9488" stroke-width="1.3" opacity="0.8"/>
  <rect x="1208" y="478" width="14" height="14" rx="2" fill="none" stroke="#0d9488" stroke-width="1.3" opacity="0.8"/>
  <text x="1234" y="481" font-size="12" font-weight="600" fill="#e2e8f0">GE Adapter</text>
  <text x="1234" y="495" font-size="8.5" fill="#2dd4bf" class="mono">ge_adapter.py</text>
  <line x1="1198" y1="501" x2="1408" y2="501" stroke="#0f2f2c" stroke-width="0.8"/>
  <text x="1198" y="514" font-size="8.5" fill="#475569">→  Great Expectations</text>
  <text x="1198" y="527" font-size="8.5" fill="#475569">→  Expectation suites</text>
  <text x="1198" y="540" font-size="8.5" fill="#475569">→  Data docs output</text>
  <text x="1198" y="553" font-size="8.5" fill="#475569">→  Adapter pattern wrap</text>
  <text x="1198" y="566" font-size="8.5" fill="#475569">→  Pluggable backends</text>
  <text x="1198" y="579" font-size="8.5" fill="#475569">→  Auto-documentation</text>
  <text x="1198" y="592" font-size="8.5" fill="#475569">→  Checkpoint runs</text>


  <!-- ══ ARROWS: L3 → L4 ══ -->
  <line x1="215" y1="598" x2="215" y2="643" stroke="rgba(180,83,9,0.6)" stroke-width="1.8" marker-end="url(#arrowAmber)"/>
  <line x1="589" y1="598" x2="589" y2="643" stroke="rgba(180,83,9,0.6)" stroke-width="1.8" marker-end="url(#arrowAmber)"/>
  <line x1="963" y1="598" x2="963" y2="643" stroke="rgba(180,83,9,0.6)" stroke-width="1.8" marker-end="url(#arrowAmber)"/>
  <line x1="1298" y1="598" x2="1298" y2="643" stroke="rgba(180,83,9,0.6)" stroke-width="1.8" marker-end="url(#arrowAmber)"/>
  <text x="229" y="625" font-size="7.5" fill="#78350f" class="mono">SQL</text>
  <text x="603" y="625" font-size="7.5" fill="#78350f" class="mono">SQL</text>
  <text x="977" y="625" font-size="7.5" fill="#78350f" class="mono">SQL</text>
  <text x="1312" y="625" font-size="7.5" fill="#78350f" class="mono">SQL</text>


  <!-- ══════════════════════════════════════════════ -->
  <!--  LAYER 4 — STORAGE                            -->
  <!-- ══════════════════════════════════════════════ -->
  <rect x="22" y="638" width="1396" height="120" rx="8"
        fill="rgba(120,53,15,0.10)" stroke="#78350f" stroke-width="1.2"/>
  <rect x="22" y="638" width="4" height="120" rx="2" fill="#b45309"/>
  <text x="46" y="658" font-size="9.5" font-weight="700" fill="#b45309" letter-spacing="2.5">LAYER 4</text>
  <text x="108" y="658" font-size="9.5" font-weight="400" fill="#334155" letter-spacing="2">— STORAGE</text>

  <rect x="1300" y="644" width="110" height="18" rx="3" fill="rgba(180,83,9,0.15)" stroke="#b45309" stroke-width="0.8"/>
  <text x="1355" y="657" text-anchor="middle" font-size="8.5" fill="#fcd34d" class="mono">Port :5432</text>

  <!-- PostgreSQL wide box -->
  <rect x="56" y="665" width="1326" height="82" rx="7"
        fill="rgba(20,10,4,0.85)" stroke="#b45309" stroke-width="1.5"/>
  <rect x="56" y="665" width="1326" height="3.5" rx="1.5" fill="#b45309" opacity="0.85"/>

  <!-- Cylinder icon for DB -->
  <ellipse cx="96" cy="688" rx="22" ry="7" fill="none" stroke="#b45309" stroke-width="1.3" opacity="0.8"/>
  <rect x="74" y="688" width="44" height="28" fill="none" stroke="#b45309" stroke-width="1.3" opacity="0.8"/>
  <ellipse cx="96" cy="716" rx="22" ry="7" fill="none" stroke="#b45309" stroke-width="1.3" opacity="0.8"/>
  <ellipse cx="96" cy="688" rx="22" ry="7" fill="rgba(120,53,15,0.2)"/>

  <text x="132" y="687" font-size="12.5" font-weight="600" fill="#fde68a">PostgreSQL</text>
  <text x="132" y="701" font-size="8.5" fill="#d97706" class="mono">Main Data Store · Docker container</text>

  <!-- Vertical divider -->
  <line x1="310" y1="670" x2="310" y2="740" stroke="#292524" stroke-width="0.8"/>

  <!-- Tables list -->
  <text x="325" y="683" font-size="9" font-weight="600" fill="#a16207">CORE TABLES</text>
  <text x="325" y="697" font-size="8.5" fill="#78350f" class="mono">validation_runs</text>
  <text x="325" y="710" font-size="8.5" fill="#78350f" class="mono">validation_results</text>
  <text x="325" y="723" font-size="8.5" fill="#78350f" class="mono">data_profiles</text>
  <text x="325" y="736" font-size="8.5" fill="#78350f" class="mono">validation_configs</text>

  <!-- Vertical divider -->
  <line x1="540" y1="670" x2="540" y2="740" stroke="#292524" stroke-width="0.8"/>
  <text x="555" y="683" font-size="9" font-weight="600" fill="#a16207">MORE TABLES</text>
  <text x="555" y="697" font-size="8.5" fill="#78350f" class="mono">data_sources</text>
  <text x="555" y="710" font-size="8.5" fill="#78350f" class="mono">datasets</text>
  <text x="555" y="723" font-size="8.5" fill="#78350f" class="mono">pipeline_metrics</text>
  <text x="555" y="736" font-size="8.5" fill="#78350f" class="mono">alerts</text>

  <!-- Vertical divider -->
  <line x1="760" y1="670" x2="760" y2="740" stroke="#292524" stroke-width="0.8"/>
  <!-- Key properties -->
  <text x="776" y="683" font-size="9" font-weight="600" fill="#a16207">GUARANTEES</text>
  <text x="776" y="697" font-size="8.5" fill="#78350f">→  ACID compliant transactions</text>
  <text x="776" y="710" font-size="8.5" fill="#78350f">→  Indexed by run_date for fast queries</text>
  <text x="776" y="723" font-size="8.5" fill="#78350f">→  Single source of truth for all results</text>
  <text x="776" y="736" font-size="8.5" fill="#78350f">→  Dockerized · Persistent volume mount</text>

  <!-- Vertical divider -->
  <line x1="1060" y1="670" x2="1060" y2="740" stroke="#292524" stroke-width="0.8"/>
  <!-- Retention / size -->
  <text x="1076" y="683" font-size="9" font-weight="600" fill="#a16207">OPERATIONS</text>
  <text x="1076" y="697" font-size="8.5" fill="#78350f">→  Scheduled VACUUM ANALYZE</text>
  <text x="1076" y="710" font-size="8.5" fill="#78350f">→  90-day result retention policy</text>
  <text x="1076" y="723" font-size="8.5" fill="#78350f">→  SQLAlchemy ORM (no raw SQL exposure)</text>
  <text x="1076" y="736" font-size="8.5" fill="#78350f">→  Credentials via .env / env vars</text>


  <!-- ══════════════════════════════════════════════ -->
  <!--  FOOTER — LEGEND + EXTERNAL SYSTEMS           -->
  <!-- ══════════════════════════════════════════════ -->
  <line x1="30" y1="773" x2="1410" y2="773" stroke="#1e293b" stroke-width="0.8"/>

  <!-- Layer Legend -->
  <text x="50" y="790" font-size="9" font-weight="600" fill="#334155" letter-spacing="1.5">LAYER KEY</text>

  <rect x="130" y="782" width="10" height="10" rx="2" fill="#3b82f6"/>
  <text x="145" y="791" font-size="8.5" fill="#64748b">User Interaction</text>

  <rect x="270" y="782" width="10" height="10" rx="2" fill="#7c3aed"/>
  <text x="285" y="791" font-size="8.5" fill="#64748b">Orchestration</text>

  <rect x="390" y="782" width="10" height="10" rx="2" fill="#0d9488"/>
  <text x="405" y="791" font-size="8.5" fill="#64748b">Core Engine</text>

  <rect x="500" y="782" width="10" height="10" rx="2" fill="#b45309"/>
  <text x="515" y="791" font-size="8.5" fill="#64748b">Storage</text>

  <!-- External systems -->
  <text x="640" y="790" font-size="9" font-weight="600" fill="#334155" letter-spacing="1.5">EXTERNAL INTEGRATIONS</text>

  <rect x="820" y="780" width="120" height="18" rx="4" fill="rgba(30,40,80,0.4)" stroke="#1e3a8a" stroke-width="0.8" stroke-dasharray="3,2"/>
  <text x="880" y="793" text-anchor="middle" font-size="8" fill="#60a5fa">⚙  GitHub Actions</text>

  <rect x="958" y="780" width="100" height="18" rx="4" fill="rgba(30,40,80,0.4)" stroke="#1e3a8a" stroke-width="0.8" stroke-dasharray="3,2"/>
  <text x="1008" y="793" text-anchor="middle" font-size="8" fill="#60a5fa">🔔  Email / SMTP</text>

  <rect x="1074" y="780" width="90" height="18" rx="4" fill="rgba(30,40,80,0.4)" stroke="#1e3a8a" stroke-width="0.8" stroke-dasharray="3,2"/>
  <text x="1119" y="793" text-anchor="middle" font-size="8" fill="#60a5fa">💬  Slack API</text>

  <rect x="1180" y="780" width="80" height="18" rx="4" fill="rgba(30,40,80,0.4)" stroke="#1e3a8a" stroke-width="0.8" stroke-dasharray="3,2"/>
  <text x="1220" y="793" text-anchor="middle" font-size="8" fill="#60a5fa">🐳  Docker</text>

  <!-- Bottom line -->
  <text x="720" y="820" text-anchor="middle" font-size="8.5" fill="#1e293b" letter-spacing="1">DATANEXUS  ·  AUTOMATED DATA QUALITY &amp; OBSERVABILITY FRAMEWORK  ·  DEPI GRADUATION PROJECT 2026</text>
  <text x="720" y="838" text-anchor="middle" font-size="8" fill="#0f172a" letter-spacing="1">Python · PostgreSQL · Apache Airflow · Great Expectations · Flask · Streamlit · Docker · pytest · GitHub Actions</text>
</svg>